<?xml version="1.0" encoding="UTF-8"?>
<svg id="_Слой_1" data-name="Слой 1" xmlns="http://www.w3.org/2000/svg" viewBox="0 0 30 30">
  <defs>
    <style>
      .cls-1 {
        fill: #999;
      }
    </style>
  </defs>
  <path class="cls-1" d="M12.53,25c-.88,0-1.75-.11-2.59-.34-.84-.23-1.65-.56-2.41-1.01,1.55-.9,2.77-2.12,3.66-3.65.89-1.53,1.34-3.2,1.34-5s-.45-3.47-1.34-5-2.11-2.75-3.66-3.65c.77-.45,1.57-.79,2.41-1.01.84-.23,1.7-.34,2.59-.34,1.38,0,2.68.26,3.9.79,1.22.53,2.28,1.24,3.18,2.14s1.61,1.96,2.14,3.18.79,2.52.79,3.9-.26,2.68-.79,3.9-1.24,2.28-2.14,3.18-1.96,1.61-3.18,2.14c-1.22.53-2.52.79-3.9.79Z"/>
</svg>