<svg width="28" height="28" viewBox="0 0 28 28" fill="none" xmlns="http://www.w3.org/2000/svg">
<path d="M8.75004 19.25L16.9167 16.9166L19.25 8.74998L11.0834 11.0833L8.75004 19.25ZM14 15.75C13.5139 15.75 13.1007 15.5798 12.7605 15.2396C12.4202 14.8993 12.25 14.4861 12.25 14C12.25 13.5139 12.4202 13.1007 12.7605 12.7604C13.1007 12.4201 13.5139 12.25 14 12.25C14.4862 12.25 14.8993 12.4201 15.2396 12.7604C15.5799 13.1007 15.75 13.5139 15.75 14C15.75 14.4861 15.5799 14.8993 15.2396 15.2396C14.8993 15.5798 14.4862 15.75 14 15.75ZM14 25.6666C12.3862 25.6666 10.8695 25.3604 9.45004 24.7479C8.0306 24.1354 6.79587 23.3041 5.74587 22.2541C4.69587 21.2041 3.86462 19.9694 3.25212 18.55C2.63962 17.1305 2.33337 15.6139 2.33337 14C2.33337 12.3861 2.63962 10.8694 3.25212 9.44998C3.86462 8.03054 4.69587 6.79581 5.74587 5.74581C6.79587 4.69581 8.0306 3.86456 9.45004 3.25206C10.8695 2.63956 12.3862 2.33331 14 2.33331C15.6139 2.33331 17.1306 2.63956 18.55 3.25206C19.9695 3.86456 21.2042 4.69581 22.2542 5.74581C23.3042 6.79581 24.1355 8.03054 24.748 9.44998C25.3605 10.8694 25.6667 12.3861 25.6667 14C25.6667 15.6139 25.3605 17.1305 24.748 18.55C24.1355 19.9694 23.3042 21.2041 22.2542 22.2541C21.2042 23.3041 19.9695 24.1354 18.55 24.7479C17.1306 25.3604 15.6139 25.6666 14 25.6666ZM14 23.3333C16.5862 23.3333 18.7882 22.4243 20.6063 20.6062C22.4243 18.7882 23.3334 16.5861 23.3334 14C23.3334 11.4139 22.4243 9.21179 20.6063 7.39373C18.7882 5.57567 16.5862 4.66665 14 4.66665C11.4139 4.66665 9.21185 5.57567 7.39379 7.39373C5.57574 9.21179 4.66671 11.4139 4.66671 14C4.66671 16.5861 5.57574 18.7882 7.39379 20.6062C9.21185 22.4243 11.4139 23.3333 14 23.3333Z" fill="#333333"/>
</svg>
