<svg width="25" height="25" viewBox="0 0 25 25" fill="none" xmlns="http://www.w3.org/2000/svg">
<path d="M12.5 14.5834C11.632 14.5834 10.8941 14.2796 10.2865 13.6719C9.67886 13.0643 9.37504 12.3264 9.37504 11.4584V5.20837C9.37504 4.34032 9.67886 3.60247 10.2865 2.99483C10.8941 2.38719 11.632 2.08337 12.5 2.08337C13.3681 2.08337 14.1059 2.38719 14.7136 2.99483C15.3212 3.60247 15.625 4.34032 15.625 5.20837V11.4584C15.625 12.3264 15.3212 13.0643 14.7136 13.6719C14.1059 14.2796 13.3681 14.5834 12.5 14.5834ZM11.4584 21.875V18.6719C9.65282 18.4289 8.15976 17.6216 6.97921 16.25C5.79865 14.8785 5.20837 13.2813 5.20837 11.4584H7.29171C7.29171 12.8993 7.79952 14.1276 8.81514 15.1433C9.83077 16.1589 11.0591 16.6667 12.5 16.6667C13.941 16.6667 15.1693 16.1589 16.1849 15.1433C17.2006 14.1276 17.7084 12.8993 17.7084 11.4584H19.7917C19.7917 13.2813 19.2014 14.8785 18.0209 16.25C16.8403 17.6216 15.3473 18.4289 13.5417 18.6719V21.875H11.4584ZM12.5 12.5C12.7952 12.5 13.0426 12.4002 13.2422 12.2006C13.4419 12.0009 13.5417 11.7535 13.5417 11.4584V5.20837C13.5417 4.91324 13.4419 4.66584 13.2422 4.46619C13.0426 4.26653 12.7952 4.16671 12.5 4.16671C12.2049 4.16671 11.9575 4.26653 11.7579 4.46619C11.5582 4.66584 11.4584 4.91324 11.4584 5.20837V11.4584C11.4584 11.7535 11.5582 12.0009 11.7579 12.2006C11.9575 12.4002 12.2049 12.5 12.5 12.5Z" fill="#333333"/>
</svg>