<svg width="25" height="25" viewBox="0 0 25 25" fill="none" xmlns="http://www.w3.org/2000/svg">
<path d="M10.3027 2.34375L10.1807 2.97852L9.7168 5.29785C8.97217 5.59082 8.30078 6.00281 7.69043 6.49414L5.41992 5.71289L4.80957 5.51758L4.49219 6.0791L2.92969 8.76465L2.6123 9.32617L3.07617 9.74121L4.83398 11.2793C4.7699 11.6791 4.6875 12.0789 4.6875 12.5C4.6875 12.9211 4.7699 13.3209 4.83398 13.7207L3.07617 15.2588L2.6123 15.6738L2.92969 16.2354L4.49219 18.9209L4.80957 19.4824L5.41992 19.2871L7.69043 18.5059C8.30078 18.9972 8.97217 19.4092 9.7168 19.7021L10.1807 22.0215L10.3027 22.6562H14.6973L14.8193 22.0215L15.2832 19.7021C16.0278 19.4092 16.6992 18.9972 17.3096 18.5059L19.5801 19.2871L20.1904 19.4824L20.5078 18.9209L22.0703 16.2354L22.3877 15.6738L21.9238 15.2588L20.166 13.7207C20.2301 13.3209 20.3125 12.9211 20.3125 12.5C20.3125 12.0789 20.2301 11.6791 20.166 11.2793L21.9238 9.74121L22.3877 9.32617L22.0703 8.76465L20.5078 6.0791L20.1904 5.51758L19.5801 5.71289L17.3096 6.49414C16.6992 6.00281 16.0278 5.59082 15.2832 5.29785L14.8193 2.97852L14.6973 2.34375H10.3027ZM11.5723 3.90625H13.4277L13.8184 5.93262L13.916 6.39648L14.3555 6.54297C15.2435 6.82068 16.0492 7.29065 16.7236 7.91016L17.0654 8.22754L17.5049 8.08105L19.4824 7.39746L20.4102 8.98438L18.8477 10.376L18.4814 10.6689L18.6035 11.1328C18.7042 11.5784 18.75 12.0331 18.75 12.5C18.75 12.9669 18.7042 13.4216 18.6035 13.8672L18.5059 14.3311L18.8477 14.624L20.4102 16.0156L19.4824 17.6025L17.5049 16.9189L17.0654 16.7725L16.7236 17.0898C16.0492 17.7094 15.2435 18.1793 14.3555 18.457L13.916 18.6035L13.8184 19.0674L13.4277 21.0938H11.5723L11.1816 19.0674L11.084 18.6035L10.6445 18.457C9.75647 18.1793 8.95081 17.7094 8.27637 17.0898L7.93457 16.7725L7.49512 16.9189L5.51758 17.6025L4.58984 16.0156L6.15234 14.624L6.51855 14.3311L6.39648 13.8672C6.29578 13.4216 6.25 12.9669 6.25 12.5C6.25 12.0331 6.29578 11.5784 6.39648 11.1328L6.51855 10.6689L6.15234 10.376L4.58984 8.98438L5.51758 7.39746L7.49512 8.08105L7.93457 8.22754L8.27637 7.91016C8.95081 7.29065 9.75647 6.82068 10.6445 6.54297L11.084 6.39648L11.1816 5.93262L11.5723 3.90625ZM12.5 8.59375C10.3516 8.59375 8.59375 10.3516 8.59375 12.5C8.59375 14.6484 10.3516 16.4062 12.5 16.4062C14.6484 16.4062 16.4062 14.6484 16.4062 12.5C16.4062 10.3516 14.6484 8.59375 12.5 8.59375ZM12.5 10.1562C13.8031 10.1562 14.8438 11.1969 14.8438 12.5C14.8438 13.8031 13.8031 14.8438 12.5 14.8438C11.1969 14.8438 10.1562 13.8031 10.1562 12.5C10.1562 11.1969 11.1969 10.1562 12.5 10.1562Z" fill="#333333"/>
</svg>
