<?xml version="1.0" encoding="UTF-8"?>
<svg id="_Слой_1" data-name="Слой 1" xmlns="http://www.w3.org/2000/svg" viewBox="0 0 1000 700">
  <path d="M675.24,58.51H51.5s0,101.49,0,101.49c13.06.1,26.19-.16,39.23.04,196.26,2.92,392.85-1.44,589.01,2.47,174.27,22,238.15,246.59,97.21,355.69-129.81,100.47-316.85,9.7-321.97-151.93l.02-107.27h-102.5l-.02,115.77c11.26,250.29,311.63,381.4,502.03,212.99,202.57-179.19,86.29-510.38-179.27-529.25ZM360.15,418.1c-9.76-51.15-4.1-104.72-5.65-156.6h98l-.02,107.77c7.24,163.78,198.57,252.32,327.75,149.71,146.26-116.17,69.2-349.93-114.46-360.5l-612.27.02V60.5l617.74.51c253.88,14.83,376.72,320.21,201.27,505.75-167.04,176.66-466.96,89.25-512.36-148.66Z"/>
  <path d="M872.51,566.76c-167.04,176.66-466.96,89.25-512.36-148.66-9.76-51.15-4.1-104.72-5.65-156.6h98l-.02,107.77c7.24,163.78,198.57,252.32,327.75,149.71,146.26-116.17,69.2-349.93-114.46-360.5l-612.27.02V60.5l617.74.51c253.88,14.83,376.72,320.21,201.27,505.75Z"/>
  <path d="M654.89,258.95c-56.1,0-101.57,45.48-101.57,101.57s45.47,101.57,101.57,101.57,101.57-45.47,101.57-101.57-45.48-101.57-101.57-101.57ZM654.53,459.67c-54.75,0-99.14-44.39-99.14-99.14s44.39-99.15,99.14-99.15,99.15,44.39,99.15,99.15-44.39,99.14-99.15,99.14Z"/>
  <path d="M753.68,360.53c0,54.75-44.39,99.14-99.15,99.14s-99.14-44.39-99.14-99.14,44.39-99.15,99.14-99.15,99.15,44.39,99.15,99.15Z"/>
</svg>