<svg width="28" height="28" viewBox="0 0 28 28" fill="none" xmlns="http://www.w3.org/2000/svg">
<path d="M8.75 19.25L16.9167 16.9166L19.25 8.74998L11.0833 11.0833L8.75 19.25ZM14 15.75C13.5139 15.75 13.1007 15.5798 12.7604 15.2396C12.4201 14.8993 12.25 14.4861 12.25 14C12.25 13.5139 12.4201 13.1007 12.7604 12.7604C13.1007 12.4201 13.5139 12.25 14 12.25C14.4861 12.25 14.8993 12.4201 15.2396 12.7604C15.5799 13.1007 15.75 13.5139 15.75 14C15.75 14.4861 15.5799 14.8993 15.2396 15.2396C14.8993 15.5798 14.4861 15.75 14 15.75ZM14 25.6666C12.3861 25.6666 10.8694 25.3604 9.45 24.7479C8.03056 24.1354 6.79584 23.3041 5.74584 22.2541C4.69584 21.2041 3.86459 19.9694 3.25209 18.55C2.63959 17.1305 2.33334 15.6139 2.33334 14C2.33334 12.3861 2.63959 10.8694 3.25209 9.44998C3.86459 8.03054 4.69584 6.79581 5.74584 5.74581C6.79584 4.69581 8.03056 3.86456 9.45 3.25206C10.8694 2.63956 12.3861 2.33331 14 2.33331C15.6139 2.33331 17.1306 2.63956 18.55 3.25206C19.9694 3.86456 21.2042 4.69581 22.2542 5.74581C23.3042 6.79581 24.1354 8.03054 24.7479 9.44998C25.3604 10.8694 25.6667 12.3861 25.6667 14C25.6667 15.6139 25.3604 17.1305 24.7479 18.55C24.1354 19.9694 23.3042 21.2041 22.2542 22.2541C21.2042 23.3041 19.9694 24.1354 18.55 24.7479C17.1306 25.3604 15.6139 25.6666 14 25.6666ZM14 23.3333C16.5861 23.3333 18.7882 22.4243 20.6063 20.6062C22.4243 18.7882 23.3333 16.5861 23.3333 14C23.3333 11.4139 22.4243 9.21179 20.6063 7.39373C18.7882 5.57567 16.5861 4.66665 14 4.66665C11.4139 4.66665 9.21181 5.57567 7.39375 7.39373C5.5757 9.21179 4.66667 11.4139 4.66667 14C4.66667 16.5861 5.5757 18.7882 7.39375 20.6062C9.21181 22.4243 11.4139 23.3333 14 23.3333Z" fill="#999999"/>
</svg>
