<svg width="25" height="25" viewBox="0 0 25 25" fill="none" xmlns="http://www.w3.org/2000/svg">
<path d="M9.375 21.875H5.20833C4.63542 21.875 4.14497 21.671 3.73698 21.263C3.32899 20.855 3.125 20.3646 3.125 19.7917V12.5C3.125 11.1979 3.3724 9.9783 3.86719 8.84115C4.36198 7.70399 5.03038 6.71441 5.8724 5.8724C6.71441 5.03038 7.70399 4.36198 8.84115 3.86719C9.9783 3.3724 11.1979 3.125 12.5 3.125C13.8021 3.125 15.0217 3.3724 16.1589 3.86719C17.296 4.36198 18.2856 5.03038 19.1276 5.8724C19.9696 6.71441 20.638 7.70399 21.1328 8.84115C21.6276 9.9783 21.875 11.1979 21.875 12.5V19.7917C21.875 20.3646 21.671 20.855 21.263 21.263C20.855 21.671 20.3646 21.875 19.7917 21.875H15.625V13.5417H19.7917V12.5C19.7917 10.4688 19.0842 8.74566 17.6693 7.33073C16.2543 5.9158 14.5312 5.20833 12.5 5.20833C10.4688 5.20833 8.74566 5.9158 7.33073 7.33073C5.9158 8.74566 5.20833 10.4688 5.20833 12.5V13.5417H9.375V21.875ZM7.29167 15.625H5.20833V19.7917H7.29167V15.625ZM17.7083 15.625V19.7917H19.7917V15.625H17.7083Z" fill="#BBBBBB"/>
</svg>
